<?xml version="1.0" standalone="no"?>
<!DOCTYPE svg PUBLIC "-//W3C//DTD SVG 20010904//EN"
 "http://www.w3.org/TR/2001/REC-SVG-20010904/DTD/svg10.dtd">
<svg version="1.0" xmlns="http://www.w3.org/2000/svg"
 width="1200.000000pt" height="1200.000000pt" viewBox="0 0 1200.000000 1200.000000"
 preserveAspectRatio="xMidYMid meet">
<metadata>
Created by potrace 1.11, written by Peter Selinger 2001-2013
</metadata>
<g transform="translate(0.000000,1200.000000) scale(0.100000,-0.100000)"
fill="#000000" stroke="none">
<path d="M800 11985 c-368 -74 -674 -362 -772 -725 l-23 -85 0 -5175 0 -5175
23 -85 c91 -339 373 -621 712 -712 l85 -23 5175 0 5175 0 85 23 c339 91 621
373 712 712 l23 85 0 5175 0 5175 -23 85 c-52 196 -183 396 -342 523 -96 77
-247 155 -365 189 l-80 23 -5160 2 c-4212 1 -5172 -1 -5225 -12z m2165 -4824
c134 -35 257 -102 339 -185 123 -123 170 -250 169 -456 -3 -398 -168 -639
-806 -1174 l-169 -141 526 -3 526 -2 0 -225 0 -225 -860 0 -860 0 0 204 0 203
133 114 c489 420 779 715 906 922 80 130 118 288 92 385 -15 53 -68 114 -125
141 -100 49 -283 45 -391 -8 -67 -33 -158 -110 -196 -165 -13 -20 -29 -34 -35
-32 -24 9 -384 268 -384 276 0 16 117 154 162 191 130 108 271 168 465 199 32
5 141 7 243 5 148 -2 201 -7 265 -24z m2193 0 c447 -113 652 -494 652 -1216 0
-725 -204 -1103 -657 -1217 -76 -19 -115 -23 -278 -23 -164 0 -202 3 -280 23
-113 29 -232 86 -311 151 -241 196 -359 600 -341 1161 12 353 71 601 189 797
44 72 156 184 229 229 74 45 198 90 297 109 114 21 390 14 500 -14z m4442 5
c323 -75 494 -235 538 -502 41 -252 -67 -442 -343 -605 l-74 -43 79 -42 c223
-119 340 -247 385 -421 22 -83 20 -252 -4 -345 -30 -117 -73 -193 -160 -279
-158 -157 -381 -229 -714 -229 -327 0 -564 76 -718 229 -121 121 -172 259
-173 466 0 105 4 130 28 199 15 43 39 100 53 125 42 72 188 210 271 256 39 22
72 42 72 45 0 3 -28 21 -62 40 -88 49 -208 170 -247 247 -83 166 -81 357 5
532 87 177 285 298 561 341 87 13 425 4 503 -14z m-1800 -816 l0 -790 145 0
145 0 0 -210 0 -210 -145 0 -145 0 0 -195 0 -195 -235 0 -235 0 0 195 0 195
-600 0 -600 0 0 229 0 228 582 772 582 771 253 0 253 0 0 -790z"/>
<path d="M4770 6757 c-61 -17 -109 -48 -158 -101 -67 -73 -107 -173 -139 -346
-22 -121 -25 -568 -5 -700 49 -318 164 -470 369 -487 229 -19 369 114 433 412
28 127 39 523 20 685 -42 365 -164 535 -392 546 -50 2 -101 -1 -128 -9z"/>
<path d="M9210 6799 c-140 -17 -225 -84 -251 -197 -24 -103 15 -195 118 -277
58 -46 203 -125 229 -125 8 0 47 16 87 36 192 97 271 187 270 310 -1 114 -75
207 -187 238 -70 20 -177 25 -266 15z"/>
<path d="M9210 5789 c-231 -126 -307 -230 -298 -407 10 -206 161 -304 442
-289 124 6 201 33 264 90 63 59 85 107 90 202 6 116 -20 179 -107 265 -71 69
-251 180 -293 180 -13 0 -57 -19 -98 -41z"/>
<path d="M6968 6027 l-357 -462 356 -3 c196 -1 358 -1 360 1 2 2 2 212 1 465
l-3 462 -357 -463z"/>
</g>
</svg>
